<?xml version="1.0" encoding="UTF-8" standalone="no"?>
<!-- Created with Inkscape (http://www.inkscape.org/) -->

<svg
   xmlns:dc="http://purl.org/dc/elements/1.1/"
   xmlns:cc="http://creativecommons.org/ns#"
   xmlns:svg="http://www.w3.org/2000/svg"
   xmlns="http://www.w3.org/2000/svg"
   version="1.1"
   width="524.40997"
   height="744.09003"
   id="svg2"
   xml:space="preserve"><metadata
     id="metadata8"></metadata><defs
     id="defs6" /><g
     transform="matrix(1.25,0,0,-1.25,0,744.09)"
     id="g10"><g
   transform="translate(-1.7065116,0)"
   id="g3027"><g
   transform="matrix(1,0,0,-1,114.1071,446.6276)"
   id="text12"
   style="line-height:125%"><path
     d="m 1.5701141,-30.720703 c -4.2e-6,-5.248011 0.8320262,-9.903768 2.4960938,-13.967285 1.6640541,-4.063428 3.9360245,-7.487253 6.8159181,-10.271485 2.879866,-2.784122 6.223613,-4.912049 10.03125,-6.383789 3.80759,-1.471617 7.855925,-2.207456 12.145019,-2.207519 4.415976,6.3e-5 8.288042,0.81598 11.616211,2.447754 3.328075,1.631895 6.111275,3.567928 8.34961,5.808105 l -9.023438,10.174805 c -1.535201,-1.343704 -3.086957,-2.383742 -4.655273,-3.120117 -1.5684,-0.73628 -3.600625,-1.104443 -6.09668,-1.104493 -2.111362,5e-5 -4.06302,0.416065 -5.85498,1.248047 -1.792021,0.832079 -3.35989,2.01616 -4.703614,3.552246 -1.343774,1.536176 -2.383812,3.424358 -3.120117,5.664551 -0.736349,2.240271 -1.104513,4.768589 -1.104492,7.584961 -2.1e-5,5.886744 1.311989,10.398459 3.936035,13.535156 2.623996,3.136734 6.75241,4.705092 12.385254,4.705078 0.894493,1.4e-5 1.773887,-0.09618 2.638184,-0.288574 0.864216,-0.192369 1.584431,-0.480943 2.160644,-0.865722 l 0,-8.639649 -9.216797,0 0,-13.438476 23.809571,0 0,29.7597653 c -1.1524,0.9589899 -2.51275,1.9028366 -4.081055,2.8315429 -1.568411,0.9287137 -3.264698,1.7446309 -5.088867,2.4477539 C 43.184326,-0.54492133 41.216555,0.03076169 39.10527,0.47900391 36.993903,0.92724517 34.85035,1.151366 32.674606,1.1513672 28.385513,1.151366 24.35329,0.49560497 20.577927,-0.81591797 16.802517,-2.1274393 13.506621,-4.111324 10.690231,-6.7675781 7.8738145,-9.4238187 5.6496957,-12.75194 4.017868,-16.751953 2.3860271,-20.751932 1.5701099,-25.408178 1.5701141,-30.720703 z"
     id="path3026"
     style="font-size:96px;font-style:normal;font-variant:normal;font-weight:900;font-stretch:normal;text-align:center;line-height:125%;writing-mode:lr-tb;text-anchor:middle;fill:#918f90;fill-opacity:1;fill-rule:nonzero;stroke:none;font-family:Source Sans Pro Black;-inkscape-font-specification:'Source Sans Pro Black, Heavy'" /><path
     d="m 65.935349,-62.399414 16.511718,0 0,34.174805 c -2.3e-5,5.568382 0.75193,9.488788 2.25586,11.76123 1.503879,2.272475 3.888642,3.408705 7.154297,3.408691 3.263636,1.4e-5 5.679161,-1.136216 7.246582,-3.408691 1.567344,-2.272442 2.351034,-6.192848 2.351074,-11.76123 l 0,-34.174805 15.9375,0 0,32.255859 c -6e-5,10.68752 -2.08013,18.575207 -6.24023,23.6630863 -4.16021,5.087892 -10.59184,7.6318347 -19.294926,7.6318359 C 83.087669,1.151366 76.57498,-1.3925767 72.319138,-6.4804687 68.06327,-11.568348 65.935342,-19.456035 65.935349,-30.143555 z"
     id="path3028"
     style="font-size:96px;font-style:normal;font-variant:normal;font-weight:900;font-stretch:normal;text-align:center;line-height:125%;writing-mode:lr-tb;text-anchor:middle;fill:#918f90;fill-opacity:1;fill-rule:nonzero;stroke:none;font-family:Source Sans Pro Black;-inkscape-font-specification:'Source Sans Pro Black, Heavy'" /><path
     d="m 141.76445,-21.503906 -18.81738,-40.895508 17.66601,0 4.60547,13.054687 c 0.76951,2.369188 1.53806,4.673385 2.30567,6.912598 0.76755,2.239298 1.56735,4.575722 2.39941,7.009277 l 0.38379,0 c 0.832,-2.433555 1.64792,-4.769979 2.44775,-7.009277 0.79978,-2.239213 1.61569,-4.54341 2.44776,-6.912598 l 4.6084,-13.054687 17.27929,0 -18.81445,40.895508 0,21.503906 -16.51172,0 z"
     id="path3030"
     style="font-size:96px;font-style:normal;font-variant:normal;font-weight:900;font-stretch:normal;text-align:center;line-height:125%;writing-mode:lr-tb;text-anchor:middle;fill:#918f90;fill-opacity:1;fill-rule:nonzero;stroke:none;font-family:Source Sans Pro Black;-inkscape-font-specification:'Source Sans Pro Black, Heavy'" /></g>

<g
   transform="matrix(1,0,0,-1,282.9591,449.2756)"
   id="text16"><path
     d="m 1.1279297,-5.8081055 c -1.1e-6,-0.9438409 0.1400134,-1.7957687 0.4200439,-2.5557861 0.2800275,-0.7600006 0.6520974,-1.404043 1.116211,-1.9321294 0.4641082,-0.528065 1.0001184,-0.936023 1.6080322,-1.223876 0.6079053,-0.28783 1.2477972,-0.431751 1.9196777,-0.431763 0.6718682,1.2e-5 1.255852,0.120007 1.7519532,0.359985 0.4960853,0.240002 1.0002352,0.568004 1.5124511,0.984009 l -0.095947,-1.992188 0,-4.488281 1.9914552,0 0,17.088135 -1.6318361,0 -0.1677246,-1.3681641 -0.07251,0 C 9.0158601,-0.91992096 8.4838782,-0.53185982 7.8837891,-0.20397949 7.2836841,0.12390124 6.6396418,0.28784151 5.9516602,0.2878418 4.479976,0.28784151 3.3081022,-0.24011206 2.4360352,-1.2960205 1.5639633,-2.3519264 1.1279286,-3.8559532 1.1279297,-5.8081055 z m 2.0397949,-0.02417 c -3.2e-6,1.4082076 0.2800259,2.5042758 0.8400879,3.288208 0.560054,0.7839373 1.3520454,1.1759047 2.3759766,1.1759033 0.5439383,1.4e-6 1.0559007,-0.1319565 1.5358886,-0.395874 0.4799721,-0.263914 0.9601962,-0.6678442 1.4406739,-1.211792 l 0,-6.0959472 C 8.8642489,-9.52001 8.3881752,-9.8360497 7.9321289,-10.019897 c -0.4560622,-0.183828 -0.9240793,-0.275747 -1.4040527,-0.275757 -0.4638733,1e-5 -0.899908,0.10792 -1.3081055,0.3237302 -0.4082079,0.21583 -0.7642867,0.5197848 -1.0682373,0.9118652 -0.3039589,0.3920985 -0.5439489,0.8601156 -0.7199707,1.4040527 -0.1760287,0.5439525 -0.2640413,1.151862 -0.2640381,1.8237305 z"
     id="path3021"
     style="font-size:24px;font-variant:normal;font-weight:normal;writing-mode:lr-tb;fill:#918f90;fill-opacity:1;fill-rule:nonzero;stroke:none;font-family:Source Sans Pro;-inkscape-font-specification:SourceSansPro-Regular" /><path
     d="m 14.41626,-5.8081055 c -10e-7,-0.9599541 0.14807,-1.8199386 0.444214,-2.579956 0.29614,-0.7600006 0.68823,-1.404043 1.176269,-1.9321285 0.488034,-0.528066 1.043942,-0.931996 1.667725,-1.211792 0.623774,-0.279774 1.271845,-0.419666 1.944214,-0.419678 0.735832,1.2e-5 1.395744,0.127941 1.979736,0.383789 0.583975,0.255871 1.072012,0.62379 1.464111,1.10376 0.39208,0.4799901 0.692128,1.0560394 0.900147,1.7281491 0.207997,0.6721272 0.312001,1.4242016 0.312011,2.2562256 -10e-6,0.4316466 -0.02418,0.7915096 -0.07251,1.0795898 l -7.871338,0 c 0.07959,1.2641643 0.467404,2.2642854 1.163452,3.0003662 0.69604,0.7360857 1.60412,1.1041273 2.724243,1.104126 0.560051,1.3e-6 1.076042,-0.084105 1.547974,-0.2523193 0.471915,-0.1682112 0.923941,-0.3883038 1.356079,-0.6602784 l 0.695801,1.29638677 c -0.511729,0.31982481 -1.0796,0.59973175 -1.703614,0.83972168 -0.624031,0.23999006 -1.336189,0.35998506 -2.136474,0.35998535 -0.783698,-2.9e-7 -1.51563,-0.1400148 -2.195801,-0.42004395 -0.68018,-0.28002888 -1.27222,-0.6800529 -1.776123,-1.20007325 -0.503909,-0.5200177 -0.899904,-1.1560034 -1.187988,-1.907959 -0.288088,-0.7519491 -0.43213,-1.6079053 -0.432129,-2.5678711 z m 8.159912,-0.8876953 c -9e-6,-1.2001874 -0.251962,-2.1163242 -0.75586,-2.7484131 -0.503914,-0.6320701 -1.211921,-0.9481101 -2.124023,-0.9481201 -0.416022,10e-6 -0.812017,0.08412 -1.187988,0.252319 -0.375982,0.1682232 -0.715947,0.4083353 -1.019898,0.7203373 -0.303959,0.3120208 -0.555912,0.6959315 -0.755859,1.1517334 -0.199954,0.4558183 -0.331912,0.9798657 -0.395874,1.5721435 z"
     id="path3023"
     style="font-size:24px;font-variant:normal;font-weight:normal;writing-mode:lr-tb;fill:#918f90;fill-opacity:1;fill-rule:nonzero;stroke:none;font-family:Source Sans Pro;-inkscape-font-specification:SourceSansPro-Regular" /></g>

</g><g
   transform="scale(1,-1)"
   id="text20"><path
     d="m 35.507652,-440.88788 9.110743,0 6.366113,17.11116 2.277686,6.6584 0.233472,0 2.277685,-6.6584 6.189673,-17.11116 9.110743,0 0,38.07727 -8.059229,0 0,-13.9584 c -3.2e-5,-0.93387 0.03888,-1.96548 0.116736,-3.09483 0.07779,-1.12932 0.17522,-2.26816 0.292285,-3.41653 0.117,-1.14833 0.233736,-2.27737 0.350207,-3.38712 0.116406,-1.10971 0.233439,-2.13152 0.351099,-3.06543 l -0.233472,0 -3.095727,8.81845 -5.89917,14.77466 -3.445044,0 -5.840357,-14.77466 -3.036914,-8.81845 -0.233472,0 c 0.117616,0.93391 0.234648,1.95572 0.351099,3.06543 0.116427,1.10975 0.233163,2.23879 0.350207,3.38712 0.117021,1.14837 0.214449,2.28721 0.292286,3.41653 0.07781,1.12935 0.116723,2.16096 0.116735,3.09483 l 0,13.9584 -7.943384,0 z"
     id="path3000"
     style="font-size:58.40000153px;font-variant:normal;font-weight:bold;text-align:center;writing-mode:lr-tb;text-anchor:middle;fill:#918f90;fill-opacity:1;fill-rule:nonzero;stroke:none;font-family:Source Sans Pro;-inkscape-font-specification:SourceSansPro-Bold" /><path
     d="m 96.169298,-418.57797 -0.933886,-3.50385 c -0.545381,-1.90815 -1.061335,-3.93306 -1.547864,-6.07472 -0.486566,-2.14162 -1.00252,-4.20514 -1.547864,-6.19057 l -0.233472,0 c -0.42775,2.02464 -0.894693,4.09796 -1.40083,6.21997 -0.506167,2.12206 -1.031923,4.13717 -1.57727,6.04532 l -0.933887,3.50385 z m 1.751929,6.71543 -11.678931,0 -2.336499,9.05193 -8.759644,0 11.971216,-38.07727 10.278101,0 11.973,38.07727 -9.11074,0 z"
     id="path3002"
     style="font-size:58.40000153px;font-variant:normal;font-weight:bold;text-align:center;writing-mode:lr-tb;text-anchor:middle;fill:#918f90;fill-opacity:1;fill-rule:nonzero;stroke:none;font-family:Source Sans Pro;-inkscape-font-specification:SourceSansPro-Bold" /><path
     d="m 113.12362,-440.88788 8.58499,0 0,21.31721 c -2e-5,3.73675 0.56465,6.34504 1.694,7.82487 1.12932,1.47985 2.76452,2.21977 4.90558,2.21976 2.14103,1e-5 3.80533,-0.73991 4.99291,-2.21976 1.18753,-1.47983 1.78131,-4.08812 1.78133,-7.82487 l 0,-21.31721 8.29271,0 0,20.44036 c -4e-5,6.38513 -1.27522,11.03763 -3.82555,13.95751 -2.5504,2.91988 -6.29753,4.37982 -11.2414,4.37982 -4.9451,0 -8.71213,-1.45994 -11.3011,-4.37982 -2.58898,-2.91988 -3.88347,-7.57238 -3.88347,-13.95751 z"
     id="path3004"
     style="font-size:58.40000153px;font-variant:normal;font-weight:bold;text-align:center;writing-mode:lr-tb;text-anchor:middle;fill:#918f90;fill-opacity:1;fill-rule:nonzero;stroke:none;font-family:Source Sans Pro;-inkscape-font-specification:SourceSansPro-Bold" /><path
     d="m 151.96546,-440.88788 13.89959,0 c 2.0638,4e-5 4.00078,0.2044 5.81095,0.61309 1.81012,0.40876 3.38679,1.09016 4.73003,2.04421 1.34317,0.95412 2.40419,2.2195 3.18305,3.79614 0.7788,1.57671 1.16822,3.51399 1.16825,5.81184 -3e-5,2.21831 -0.39895,4.14519 -1.19676,5.78066 -0.79788,1.6355 -1.8782,2.97871 -3.24098,4.02961 -1.36284,1.05094 -2.93981,1.82947 -4.73092,2.33561 -1.79116,0.50616 -3.69903,0.75924 -5.72362,0.75923 l -5.25579,0 0,12.90688 -8.6438,0 z m 13.37383,18.33733 c 4.67179,2e-5 7.00769,-2.02399 7.00772,-6.07205 -3e-5,-1.98656 -0.59351,-3.38857 -1.78045,-4.20605 -1.18698,-0.81742 -2.92941,-1.22614 -5.22727,-1.22617 l -4.73003,0 0,11.50427 z"
     id="path3006"
     style="font-size:58.40000153px;font-variant:normal;font-weight:bold;text-align:center;writing-mode:lr-tb;text-anchor:middle;fill:#918f90;fill-opacity:1;fill-rule:nonzero;stroke:none;font-family:Source Sans Pro;-inkscape-font-specification:SourceSansPro-Bold" /><path
     d="m 203.50211,-418.57797 -0.93389,-3.50385 c -0.54538,-1.90815 -1.06133,-3.93306 -1.54786,-6.07472 -0.48657,-2.14162 -1.00252,-4.20514 -1.54787,-6.19057 l -0.23347,0 c -0.42775,2.02464 -0.89469,4.09796 -1.40083,6.21997 -0.50617,2.12206 -1.03192,4.13717 -1.57727,6.04532 l -0.93389,3.50385 z m 1.75193,6.71543 -11.67893,0 -2.3365,9.05193 -8.75965,0 11.97122,-38.07727 10.2781,0 11.973,38.07727 -9.11074,0 z"
     id="path3008"
     style="font-size:58.40000153px;font-variant:normal;font-weight:bold;text-align:center;writing-mode:lr-tb;text-anchor:middle;fill:#918f90;fill-opacity:1;fill-rule:nonzero;stroke:none;font-family:Source Sans Pro;-inkscape-font-specification:SourceSansPro-Bold" /><path
     d="m 223.14225,-413.49862 c 1.3628,1.16796 2.86195,2.12205 4.49745,2.86226 1.63548,0.74022 3.25107,1.11033 4.84677,1.11032 1.79171,1e-5 3.12541,-0.33089 4.0011,-0.9927 0.87564,-0.66179 1.31348,-1.55765 1.3135,-2.6876 -2e-5,-0.58337 -0.12656,-1.08922 -0.37962,-1.51756 -0.25309,-0.42832 -0.62291,-0.80793 -1.10943,-1.13884 -0.48657,-0.33089 -1.07055,-0.64248 -1.75193,-0.93478 -0.68142,-0.29227 -1.43085,-0.61367 -2.24828,-0.96419 l -4.90647,-2.10124 c -1.01232,-0.3897 -1.97591,-0.89615 -2.89077,-1.51935 -0.91489,-0.62317 -1.73233,-1.35328 -2.45235,-2.19036 -0.72002,-0.83703 -1.29419,-1.81012 -1.72252,-2.91928 -0.42833,-1.10912 -0.64249,-2.3647 -0.64249,-3.76674 0,-1.55764 0.3407,-3.02738 1.02211,-4.40923 0.6814,-1.38179 1.61588,-2.58865 2.80344,-3.62059 1.18755,-1.03187 2.60857,-1.83982 4.26308,-2.42383 1.65449,-0.58394 3.47444,-0.87593 5.45986,-0.87596 2.21944,3e-5 4.4095,0.42836 6.57017,1.28498 2.16063,0.85669 4.059,2.10247 5.69511,3.73733 l -4.3219,5.43223 c -1.24639,-0.97426 -2.50227,-1.72398 -3.76763,-2.24917 -1.2654,-0.52513 -2.65732,-0.78772 -4.17575,-0.78775 -1.47927,3e-5 -2.65672,0.30153 -3.53238,0.90448 -0.87568,0.60302 -1.31351,1.44987 -1.3135,2.54057 -1e-5,0.58341 0.14583,1.07976 0.43754,1.48905 0.29168,0.40934 0.7004,0.77945 1.22617,1.11032 0.52574,0.33093 1.14863,0.64222 1.86866,0.93389 0.72001,0.29172 1.48874,0.61281 2.30621,0.96329 l 4.84765,1.9854 c 2.33588,0.9351 4.17544,2.22008 5.51867,3.85496 1.34317,1.63491 2.01477,3.79556 2.0148,6.48196 -3e-5,1.59688 -0.32112,3.10583 -0.96329,4.52685 -0.64222,1.42104 -1.5767,2.66681 -2.80344,3.73733 -1.22679,1.07053 -2.72564,1.92689 -4.49656,2.56908 -1.77096,0.6422 -3.78576,0.9633 -6.04442,0.9633 -2.49157,0 -4.97361,-0.45744 -7.44614,-1.37232 -2.47255,-0.91487 -4.70152,-2.28719 -6.68692,-4.11694 z"
     id="path3010"
     style="font-size:58.40000153px;font-variant:normal;font-weight:bold;text-align:center;writing-mode:lr-tb;text-anchor:middle;fill:#918f90;fill-opacity:1;fill-rule:nonzero;stroke:none;font-family:Source Sans Pro;-inkscape-font-specification:SourceSansPro-Bold" /><path
     d="m 255.53599,-413.49862 c 1.3628,1.16796 2.86195,2.12205 4.49745,2.86226 1.63548,0.74022 3.25106,1.11033 4.84677,1.11032 1.79171,1e-5 3.12541,-0.33089 4.00109,-0.9927 0.87565,-0.66179 1.31348,-1.55765 1.3135,-2.6876 -2e-5,-0.58337 -0.12655,-1.08922 -0.37961,-1.51756 -0.2531,-0.42832 -0.62291,-0.80793 -1.10944,-1.13884 -0.48656,-0.33089 -1.07054,-0.64248 -1.75192,-0.93478 -0.68143,-0.29227 -1.43085,-0.61367 -2.24828,-0.96419 l -4.90647,-2.10124 c -1.01232,-0.3897 -1.97591,-0.89615 -2.89077,-1.51935 -0.91489,-0.62317 -1.73234,-1.35328 -2.45235,-2.19036 -0.72002,-0.83703 -1.2942,-1.81012 -1.72252,-2.91928 -0.42833,-1.10912 -0.6425,-2.3647 -0.64249,-3.76674 -1e-5,-1.55764 0.3407,-3.02738 1.0221,-4.40923 0.6814,-1.38179 1.61588,-2.58865 2.80345,-3.62059 1.18754,-1.03187 2.60857,-1.83982 4.26308,-2.42383 1.65449,-0.58394 3.47444,-0.87593 5.45985,-0.87596 2.21945,3e-5 4.40951,0.42836 6.57018,1.28498 2.16063,0.85669 4.059,2.10247 5.69511,3.73733 l -4.3219,5.43223 c -1.2464,-0.97426 -2.50227,-1.72398 -3.76763,-2.24917 -1.2654,-0.52513 -2.65732,-0.78772 -4.17576,-0.78775 -1.47926,3e-5 -2.65672,0.30153 -3.53237,0.90448 -0.87568,0.60302 -1.31351,1.44987 -1.3135,2.54057 -1e-5,0.58341 0.14583,1.07976 0.43754,1.48905 0.29167,0.40934 0.7004,0.77945 1.22617,1.11032 0.52574,0.33093 1.14863,0.64222 1.86866,0.93389 0.72001,0.29172 1.48874,0.61281 2.3062,0.96329 l 4.84766,1.9854 c 2.33588,0.9351 4.17543,2.22008 5.51866,3.85496 1.34318,1.63491 2.01478,3.79556 2.01481,6.48196 -3e-5,1.59688 -0.32113,3.10583 -0.96329,4.52685 -0.64223,1.42104 -1.57671,2.66681 -2.80344,3.73733 -1.2268,1.07053 -2.72565,1.92689 -4.49656,2.56908 -1.77096,0.6422 -3.78577,0.9633 -6.04442,0.9633 -2.49157,0 -4.97361,-0.45744 -7.44615,-1.37232 -2.47254,-0.91487 -4.70151,-2.28719 -6.68691,-4.11694 z"
     id="path3012"
     style="font-size:58.40000153px;font-variant:normal;font-weight:bold;text-align:center;writing-mode:lr-tb;text-anchor:middle;fill:#918f90;fill-opacity:1;fill-rule:nonzero;stroke:none;font-family:Source Sans Pro;-inkscape-font-specification:SourceSansPro-Bold" /><path
     d="m 301.59586,-418.57797 -0.93389,-3.50385 c -0.54538,-1.90815 -1.06133,-3.93306 -1.54786,-6.07472 -0.48657,-2.14162 -1.00252,-4.20514 -1.54787,-6.19057 l -0.23347,0 c -0.42775,2.02464 -0.89469,4.09796 -1.40083,6.21997 -0.50617,2.12206 -1.03192,4.13717 -1.57727,6.04532 l -0.93389,3.50385 z m 1.75193,6.71543 -11.67893,0 -2.3365,9.05193 -8.75965,0 11.97122,-38.07727 10.2781,0 11.973,38.07727 -9.11074,0 z"
     id="path3014"
     style="font-size:58.40000153px;font-variant:normal;font-weight:bold;text-align:center;writing-mode:lr-tb;text-anchor:middle;fill:#918f90;fill-opacity:1;fill-rule:nonzero;stroke:none;font-family:Source Sans Pro;-inkscape-font-specification:SourceSansPro-Bold" /><path
     d="m 318.72485,-440.88788 8.81845,0 9.92879,18.9219 3.79614,8.41033 0.23347,0 c -0.19488,-2.0246 -0.42865,-4.28297 -0.7013,-6.77514 -0.27271,-2.49212 -0.40905,-4.86694 -0.40903,-7.12445 l 0,-13.43264 8.17686,0 0,38.07727 -8.81846,0 -9.92878,-18.98071 -3.73733,-8.2927 -0.23347,0 c 0.19484,2.10305 0.42861,4.36143 0.7013,6.77513 0.27267,2.41375 0.40901,4.74995 0.40903,7.00861 l 0,13.48967 -8.23567,0 z"
     id="path3016"
     style="font-size:58.40000153px;font-variant:normal;font-weight:bold;text-align:center;writing-mode:lr-tb;text-anchor:middle;fill:#918f90;fill-opacity:1;fill-rule:nonzero;stroke:none;font-family:Source Sans Pro;-inkscape-font-specification:SourceSansPro-Bold" /><path
     d="m 364.98254,-433.64669 -10.51336,0 0,-7.24119 29.5511,0 0,7.24119 -10.45276,0 0,30.83608 -8.58498,0 z"
     id="path3018"
     style="font-size:58.40000153px;font-variant:normal;font-weight:bold;text-align:center;writing-mode:lr-tb;text-anchor:middle;fill:#918f90;fill-opacity:1;fill-rule:nonzero;stroke:none;font-family:Source Sans Pro;-inkscape-font-specification:SourceSansPro-Bold" /></g>

<g
   transform="scale(1,-1)"
   id="text24"
   style="font-size:89.59999847px;line-height:72.00000286%"><path
     d="m 106.36223,-307.35907 c 1.68016,1.34474 3.49217,2.43715 5.43603,3.27722 1.94383,0.8401 3.78001,1.26014 5.50855,1.26013 1.87205,1e-5 3.22776,-0.28819 4.06714,-0.86462 0.83933,-0.57641 1.259,-1.39269 1.25903,-2.44885 -3e-5,-0.57567 -0.14395,-1.05541 -0.43176,-1.43921 -0.28787,-0.38378 -0.70755,-0.74376 -1.25904,-1.07996 -0.55153,-0.33616 -1.21144,-0.66026 -1.97973,-0.97229 -0.76833,-0.31199 -1.65639,-0.65989 -2.66419,-1.0437 l -5.83154,-2.44775 c -1.24806,-0.48045 -2.44813,-1.11656 -3.60022,-1.90833 -1.15211,-0.79172 -2.16029,-1.72776 -3.02454,-2.8081 -0.86426,-1.0803 -1.54834,-2.31626 -2.05224,-3.70789 -0.50391,-1.39157 -0.75586,-2.92746 -0.75586,-4.60767 0,-2.01705 0.43212,-3.90157 1.29639,-5.65356 0.86425,-1.75191 2.06432,-3.2878 3.60022,-4.60767 1.53587,-1.31978 3.37169,-2.36348 5.50744,-3.1311 2.13573,-0.76753 4.47581,-1.15132 7.02027,-1.15137 2.68796,5e-5 5.41183,0.50396 8.17163,1.51172 2.75973,1.00786 5.21993,2.59135 7.38061,4.75049 l -6.19189,7.77612 c -1.58499,-1.10299 -3.10916,-1.94271 -4.57251,-2.51916 -1.46341,-0.57638 -3.05935,-0.86459 -4.78784,-0.86463 -1.53665,4e-5 -2.73672,0.26408 -3.60022,0.79212 -0.86355,0.52811 -1.29531,1.32022 -1.29529,2.37634 -2e-5,1.10453 0.61192,1.9567 1.83581,2.55652 1.22386,0.59988 2.91539,1.30777 5.07459,2.12366 l 5.68872,2.23242 c 2.92819,1.15139 5.18441,2.75906 6.76868,4.823 1.58419,2.06398 2.3763,4.7278 2.37634,7.99145 -4e-5,1.96876 -0.40836,3.865 -1.22498,5.68872 -0.81668,1.82374 -2.00467,3.41969 -3.56396,4.78784 -1.55936,1.36817 -3.46732,2.46021 -5.72388,3.27613 -2.25662,0.81592 -4.84829,1.22387 -7.77502,1.22387 -2.97658,0 -6.037,-0.53979 -9.18128,-1.61938 -3.14429,-1.07959 -5.98792,-2.77148 -8.530882,-5.07568 z"
     id="path3064"
     style="font-size:72px;font-style:normal;font-variant:normal;font-weight:900;font-stretch:normal;text-align:center;line-height:72.00000286%;writing-mode:lr-tb;text-anchor:middle;fill:#231f20;fill-opacity:1;fill-rule:nonzero;stroke:none;font-family:Source Sans Pro Black;-inkscape-font-specification:'Source Sans Pro Black, Heavy'" /><path
     d="m 142.82585,-339.83026 12.38379,0 0,17.42432 13.96802,0 0,-17.42432 12.38379,0 0,46.79956 -12.38379,0 0,-18.57568 -13.96802,0 0,18.57568 -12.38379,0 z"
     id="path3066"
     style="font-size:72px;font-style:normal;font-variant:normal;font-weight:900;font-stretch:normal;text-align:center;line-height:72.00000286%;writing-mode:lr-tb;text-anchor:middle;fill:#231f20;fill-opacity:1;fill-rule:nonzero;stroke:none;font-family:Source Sans Pro Black;-inkscape-font-specification:'Source Sans Pro Black, Heavy'" /><path
     d="m 211.63322,-292.16718 c -3.26369,0 -6.2278,-0.55188 -8.89233,-1.65563 -2.66456,-1.10376 -4.94459,-2.69971 -6.84009,-4.78785 -1.89551,-2.08812 -3.37134,-4.65599 -4.42749,-7.70361 -1.05615,-3.04759 -1.58423,-6.4918 -1.58423,-10.33264 0,-3.83933 0.52808,-7.259 1.58423,-10.25903 1.05615,-2.99997 2.53198,-5.52023 4.42749,-7.5608 1.8955,-2.04048 4.17553,-3.58845 6.84009,-4.64392 2.66453,-1.05537 5.62864,-1.58308 8.89233,-1.58313 3.21531,5e-5 6.16697,0.52776 8.85498,1.58313 2.68796,1.05547 4.98007,2.61516 6.87635,4.67908 1.8962,2.064 3.37239,4.58427 4.42859,7.56079 1.0561,2.97659 1.58418,6.38455 1.58423,10.22388 -5e-5,3.84084 -0.52813,7.28505 -1.58423,10.33264 -1.0562,3.04762 -2.53239,5.61549 -4.42859,7.70361 -1.89628,2.08814 -4.18839,3.68409 -6.87635,4.78785 -2.68801,1.10375 -5.63967,1.65563 -8.85498,1.65563 z m 0,-10.65454 c 2.83152,1e-5 5.05112,-1.23631 6.65882,-3.70898 1.60763,-2.47264 2.41146,-5.84471 2.4115,-10.11621 -4e-5,-4.27146 -0.80387,-7.57138 -2.4115,-9.89978 -1.6077,-2.32834 -3.8273,-3.49252 -6.65882,-3.49256 -2.83303,4e-5 -5.05336,1.16422 -6.66101,3.49256 -1.60768,2.3284 -2.41151,5.62832 -2.4115,9.89978 -1e-5,4.2715 0.80382,7.64357 2.4115,10.11621 1.60765,2.47267 3.82798,3.70899 6.66101,3.70898 z"
     id="path3068"
     style="font-size:72px;font-style:normal;font-variant:normal;font-weight:900;font-stretch:normal;text-align:center;line-height:72.00000286%;writing-mode:lr-tb;text-anchor:middle;fill:#231f20;fill-opacity:1;fill-rule:nonzero;stroke:none;font-family:Source Sans Pro Black;-inkscape-font-specification:'Source Sans Pro Black, Heavy'" /><path
     d="m 254.06902,-318.51898 4.46484,0 c 4.99216,2e-5 7.48825,-2.06394 7.48828,-6.1919 -3e-5,-2.01559 -0.63614,-3.40755 -1.90832,-4.1759 -1.27225,-0.76827 -3.13223,-1.15243 -5.57996,-1.15247 l -4.46484,0 z m 12.81665,25.48828 -8.06397,-15.69507 -4.75268,0 0,15.69507 -12.38379,0 0,-46.79956 17.71215,0 c 2.49607,5e-5 4.88413,0.23991 7.16419,0.7196 2.28,0.47979 4.27218,1.2957 5.97656,2.44776 1.70431,1.15214 3.06039,2.70011 4.06824,4.64392 1.00777,1.94388 1.51168,4.37992 1.51172,7.3081 -4e-5,3.36038 -0.68413,6.14432 -2.05225,8.35181 -1.3682,2.20754 -3.20438,3.93532 -5.50854,5.18335 l 10.15356,18.14502 z"
     id="path3070"
     style="font-size:72px;font-style:normal;font-variant:normal;font-weight:900;font-stretch:normal;text-align:center;line-height:72.00000286%;writing-mode:lr-tb;text-anchor:middle;fill:#231f20;fill-opacity:1;fill-rule:nonzero;stroke:none;font-family:Source Sans Pro Black;-inkscape-font-specification:'Source Sans Pro Black, Heavy'" /><path
     d="m 296.03679,-329.46356 -12.38599,0 0,-10.3667 37.15357,0 0,10.3667 -12.38379,0 0,36.43286 -12.38379,0 z"
     id="path3072"
     style="font-size:72px;font-style:normal;font-variant:normal;font-weight:900;font-stretch:normal;text-align:center;line-height:72.00000286%;writing-mode:lr-tb;text-anchor:middle;fill:#231f20;fill-opacity:1;fill-rule:nonzero;stroke:none;font-family:Source Sans Pro Black;-inkscape-font-specification:'Source Sans Pro Black, Heavy'" /><path
     d="m 79.151291,-255.51907 c 1.680165,1.34474 3.492175,2.43714 5.436035,3.27722 1.943831,0.8401 3.780011,1.26014 5.508545,1.26013 1.872048,1e-5 3.22776,-0.2882 4.067139,-0.86462 0.83933,-0.57641 1.259007,-1.39269 1.259033,-2.44886 -2.6e-5,-0.57567 -0.143947,-1.0554 -0.431763,-1.43921 -0.287867,-0.38377 -0.707544,-0.74375 -1.259033,-1.07995 -0.551537,-0.33617 -1.211449,-0.66026 -1.979736,-0.97229 -0.768332,-0.312 -1.656393,-0.6599 -2.664185,-1.0437 l -5.831543,-2.44776 c -1.248059,-0.48044 -2.448131,-1.11655 -3.60022,-1.90832 -1.152108,-0.79173 -2.160286,-1.72776 -3.024536,-2.80811 -0.864264,-1.08029 -1.548345,-2.31625 -2.052246,-3.70788 -0.50391,-1.39157 -0.755863,-2.92746 -0.755859,-4.60767 -4e-6,-2.01705 0.432124,-3.90157 1.296386,-5.65356 0.864252,-1.75192 2.064324,-3.2878 3.60022,-4.60767 1.535878,-1.31978 3.371692,-2.36348 5.507446,-3.1311 2.135726,-0.76753 4.475812,-1.15132 7.020264,-1.15137 2.687964,5e-5 5.411839,0.50395 8.171631,1.51172 2.759731,1.00786 5.219931,2.59135 7.380611,4.75049 l -6.19189,7.77612 c -1.58499,-1.10299 -3.109159,-1.94271 -4.57251,-2.51917 -1.463404,-0.57637 -3.059349,-0.86458 -4.787842,-0.86462 -1.536641,4e-5 -2.736713,0.26408 -3.60022,0.79211 -0.863542,0.52812 -1.295304,1.32023 -1.295288,2.37635 -1.6e-5,1.10452 0.611922,1.95669 1.835816,2.55652 1.223857,0.59988 2.915384,1.30777 5.074585,2.12365 l 5.68872,2.23243 c 2.928189,1.15139 5.184419,2.75905 6.768679,4.82299 1.58419,2.06399 2.3763,4.7278 2.37634,7.99146 -4e-5,1.96876 -0.40836,3.865 -1.22497,5.68872 -0.81669,1.82374 -2.00468,3.41968 -3.56397,4.78784 -1.55936,1.36817 -3.467315,2.46021 -5.723876,3.27612 -2.256618,0.81592 -4.84829,1.22388 -7.775025,1.22388 -2.976579,0 -6.037001,-0.53979 -9.181274,-1.61938 -3.144295,-1.07959 -5.98792,-2.77148 -8.530884,-5.07569 z"
     id="path3074"
     style="font-size:72px;font-style:normal;font-variant:normal;font-weight:900;font-stretch:normal;text-align:center;line-height:72.00000286%;writing-mode:lr-tb;text-anchor:middle;fill:#231f20;fill-opacity:1;fill-rule:nonzero;stroke:none;font-family:Source Sans Pro Black;-inkscape-font-specification:'Source Sans Pro Black, Heavy'" /><path
     d="m 124.5446,-277.62357 -12.38598,0 0,-10.36669 37.15356,0 0,10.36669 -12.38379,0 0,36.43287 -12.38379,0 z"
     id="path3076"
     style="font-size:72px;font-style:normal;font-variant:normal;font-weight:900;font-stretch:normal;text-align:center;line-height:72.00000286%;writing-mode:lr-tb;text-anchor:middle;fill:#231f20;fill-opacity:1;fill-rule:nonzero;stroke:none;font-family:Source Sans Pro Black;-inkscape-font-specification:'Source Sans Pro Black, Heavy'" /><path
     d="m 175.98479,-240.32718 c -3.2637,0 -6.2278,-0.55188 -8.89234,-1.65564 -2.66456,-1.10376 -4.94459,-2.6997 -6.84008,-4.78784 -1.89552,-2.08813 -3.37135,-4.656 -4.4275,-7.70361 -1.05615,-3.04759 -1.58423,-6.49181 -1.58422,-10.33265 -10e-6,-3.83932 0.52807,-7.259 1.58422,-10.25903 1.05615,-2.99996 2.53198,-5.52022 4.4275,-7.56079 1.89549,-2.04048 4.17552,-3.58846 6.84008,-4.64392 2.66454,-1.05537 5.62864,-1.58308 8.89234,-1.58313 3.2153,5e-5 6.16696,0.52776 8.85498,1.58313 2.68795,1.05546 4.98006,2.61516 6.87634,4.67908 1.8962,2.064 3.37239,4.58426 4.42859,7.56079 1.05611,2.97659 1.58418,6.38455 1.58423,10.22387 -5e-5,3.84084 -0.52812,7.28506 -1.58423,10.33265 -1.0562,3.04761 -2.53239,5.61548 -4.42859,7.70361 -1.89628,2.08814 -4.18839,3.68408 -6.87634,4.78784 -2.68802,1.10376 -5.63968,1.65564 -8.85498,1.65564 z m 0,-10.65454 c 2.83151,1e-5 5.05111,-1.23632 6.65881,-3.70898 1.60763,-2.47264 2.41147,-5.84471 2.4115,-10.11622 -3e-5,-4.27145 -0.80387,-7.57138 -2.4115,-9.89978 -1.6077,-2.32833 -3.8273,-3.49251 -6.65881,-3.49255 -2.83303,4e-5 -5.05337,1.16422 -6.66101,3.49255 -1.60769,2.3284 -2.41152,5.62833 -2.4115,9.89978 -2e-5,4.27151 0.80381,7.64358 2.4115,10.11622 1.60764,2.47266 3.82798,3.70899 6.66101,3.70898 z"
     id="path3078"
     style="font-size:72px;font-style:normal;font-variant:normal;font-weight:900;font-stretch:normal;text-align:center;line-height:72.00000286%;writing-mode:lr-tb;text-anchor:middle;fill:#231f20;fill-opacity:1;fill-rule:nonzero;stroke:none;font-family:Source Sans Pro Black;-inkscape-font-specification:'Source Sans Pro Black, Heavy'" /><path
     d="m 218.42058,-266.67899 4.46484,0 c 4.99216,3e-5 7.48825,-2.06393 7.48828,-6.19189 -3e-5,-2.01559 -0.63613,-3.40756 -1.90832,-4.1759 -1.27225,-0.76828 -3.13223,-1.15243 -5.57996,-1.15247 l -4.46484,0 z m 12.81665,25.48829 -8.06397,-15.69507 -4.75268,0 0,15.69507 -12.38379,0 0,-46.79956 17.71216,0 c 2.49607,4e-5 4.88412,0.23991 7.16418,0.7196 2.28,0.47978 4.27218,1.2957 5.97656,2.44775 1.70431,1.15215 3.06039,2.70012 4.06824,4.64392 1.00777,1.94389 1.51168,4.37992 1.51172,7.30811 -4e-5,3.36038 -0.68412,6.14431 -2.05225,8.35181 -1.3682,2.20754 -3.20438,3.93532 -5.50854,5.18335 l 10.15356,18.14502 z"
     id="path3080"
     style="font-size:72px;font-style:normal;font-variant:normal;font-weight:900;font-stretch:normal;text-align:center;line-height:72.00000286%;writing-mode:lr-tb;text-anchor:middle;fill:#231f20;fill-opacity:1;fill-rule:nonzero;stroke:none;font-family:Source Sans Pro Black;-inkscape-font-specification:'Source Sans Pro Black, Heavy'" /><path
     d="m 251.45866,-287.99026 12.38379,0 0,46.79956 -12.38379,0 z"
     id="path3082"
     style="font-size:72px;font-style:normal;font-variant:normal;font-weight:900;font-stretch:normal;text-align:center;line-height:72.00000286%;writing-mode:lr-tb;text-anchor:middle;fill:#231f20;fill-opacity:1;fill-rule:nonzero;stroke:none;font-family:Source Sans Pro Black;-inkscape-font-specification:'Source Sans Pro Black, Heavy'" /><path
     d="m 274.23991,-287.99026 30.24097,0 0,10.36669 -17.85718,0 0,7.34546 15.26441,0 0,10.3667 -15.26441,0 0,8.35181 18.57788,0 0,10.3689 -30.96167,0 z"
     id="path3084"
     style="font-size:72px;font-style:normal;font-variant:normal;font-weight:900;font-stretch:normal;text-align:center;line-height:72.00000286%;writing-mode:lr-tb;text-anchor:middle;fill:#231f20;fill-opacity:1;fill-rule:nonzero;stroke:none;font-family:Source Sans Pro Black;-inkscape-font-specification:'Source Sans Pro Black, Heavy'" /><path
     d="m 318.49504,-255.51907 c 1.68017,1.34474 3.49218,2.43714 5.43604,3.27722 1.94383,0.8401 3.78001,1.26014 5.50854,1.26013 1.87205,1e-5 3.22776,-0.2882 4.06714,-0.86462 0.83933,-0.57641 1.25901,-1.39269 1.25903,-2.44886 -2e-5,-0.57567 -0.14394,-1.0554 -0.43176,-1.43921 -0.28787,-0.38377 -0.70754,-0.74375 -1.25903,-1.07995 -0.55154,-0.33617 -1.21145,-0.66026 -1.97974,-0.97229 -0.76833,-0.312 -1.65639,-0.6599 -2.66418,-1.0437 l -5.83155,-2.44776 c -1.24806,-0.48044 -2.44813,-1.11655 -3.60022,-1.90832 -1.1521,-0.79173 -2.16028,-1.72776 -3.02453,-2.80811 -0.86427,-1.08029 -1.54835,-2.31625 -2.05225,-3.70788 -0.50391,-1.39157 -0.75586,-2.92746 -0.75586,-4.60767 0,-2.01705 0.43213,-3.90157 1.29639,-5.65356 0.86425,-1.75192 2.06432,-3.2878 3.60022,-4.60767 1.53588,-1.31978 3.37169,-2.36348 5.50744,-3.1311 2.13573,-0.76753 4.47582,-1.15132 7.02027,-1.15137 2.68796,5e-5 5.41184,0.50395 8.17163,1.51172 2.75973,1.00786 5.21993,2.59135 7.38061,4.75049 l -6.19189,7.77612 c -1.58499,-1.10299 -3.10916,-1.94271 -4.57251,-2.51917 -1.4634,-0.57637 -3.05935,-0.86458 -4.78784,-0.86462 -1.53664,4e-5 -2.73671,0.26408 -3.60022,0.79211 -0.86354,0.52812 -1.29531,1.32023 -1.29529,2.37635 -2e-5,1.10452 0.61192,1.95669 1.83582,2.55652 1.22385,0.59988 2.91538,1.30777 5.07458,2.12365 l 5.68872,2.23243 c 2.92819,1.15139 5.18442,2.75905 6.76868,4.82299 1.58419,2.06399 2.3763,4.7278 2.37634,7.99146 -4e-5,1.96876 -0.40836,3.865 -1.22497,5.68872 -0.81669,1.82374 -2.00468,3.41968 -3.56397,4.78784 -1.55936,1.36817 -3.46731,2.46021 -5.72388,3.27612 -2.25661,0.81592 -4.84829,1.22388 -7.77502,1.22388 -2.97658,0 -6.037,-0.53979 -9.18128,-1.61938 -3.14429,-1.07959 -5.98792,-2.77148 -8.53088,-5.07569 z"
     id="path3086"
     style="font-size:72px;font-style:normal;font-variant:normal;font-weight:900;font-stretch:normal;text-align:center;line-height:72.00000286%;writing-mode:lr-tb;text-anchor:middle;fill:#231f20;fill-opacity:1;fill-rule:nonzero;stroke:none;font-family:Source Sans Pro Black;-inkscape-font-specification:'Source Sans Pro Black, Heavy'" /><path
     d="m 65.862228,-151.83907 c 1.680165,1.34474 3.492175,2.43715 5.436036,3.27723 1.94383,0.84009 3.78001,1.26014 5.508544,1.26013 1.872049,1e-5 3.22776,-0.2882 4.067139,-0.86463 0.83933,-0.5764 1.259008,-1.39268 1.259033,-2.44885 -2.5e-5,-0.57567 -0.143946,-1.0554 -0.431762,-1.43921 -0.287867,-0.38377 -0.707544,-0.74376 -1.259034,-1.07995 -0.551537,-0.33617 -1.211448,-0.66027 -1.979736,-0.97229 -0.768332,-0.312 -1.656392,-0.6599 -2.664184,-1.0437 l -5.831543,-2.44776 c -1.24806,-0.48045 -2.448132,-1.11655 -3.60022,-1.90832 -1.152108,-0.79173 -2.160286,-1.72776 -3.024536,-2.80811 -0.864264,-1.0803 -1.548345,-2.31626 -2.052246,-3.70789 -0.503911,-1.39157 -0.755864,-2.92745 -0.75586,-4.60766 -4e-6,-2.01706 0.432125,-3.90158 1.296387,-5.65357 0.864252,-1.75191 2.064324,-3.2878 3.60022,-4.60766 1.535878,-1.31978 3.371691,-2.36348 5.507446,-3.13111 2.135726,-0.76753 4.475811,-1.15131 7.020264,-1.15136 2.687964,5e-5 5.411838,0.50395 8.171631,1.51172 2.759733,1.00785 5.219935,2.59135 7.380615,4.75048 l -6.191895,7.77613 c -1.58499,-1.10299 -3.109158,-1.94272 -4.57251,-2.51917 -1.463403,-0.57638 -3.059349,-0.86458 -4.787841,-0.86462 -1.536641,4e-5 -2.736713,0.26407 -3.60022,0.79211 -0.863542,0.52811 -1.295305,1.32023 -1.295288,2.37635 -1.7e-5,1.10452 0.611921,1.95669 1.835815,2.55651 1.223858,0.59989 2.915384,1.30777 5.074585,2.12366 l 5.688721,2.23242 c 2.928191,1.1514 5.184414,2.75906 6.768677,4.823 1.584191,2.06399 2.376304,4.7278 2.376342,7.99146 -3.8e-5,1.96876 -0.408363,3.865 -1.224975,5.68872 -0.816687,1.82373 -2.004674,3.41968 -3.563965,4.78784 -1.559358,1.36817 -3.467315,2.46021 -5.723877,3.27612 -2.256617,0.81592 -4.848289,1.22388 -7.775024,1.22388 -2.97658,0 -6.037002,-0.5398 -9.181275,-1.61939 -3.144295,-1.07958 -5.98792,-2.77148 -8.530884,-5.07568 z"
     id="path3088"
     style="font-size:72px;font-style:normal;font-variant:normal;font-weight:900;font-stretch:normal;text-align:center;line-height:72.00000286%;writing-mode:lr-tb;text-anchor:middle;fill:#231f20;fill-opacity:1;fill-rule:nonzero;stroke:none;font-family:Source Sans Pro Black;-inkscape-font-specification:'Source Sans Pro Black, Heavy'" /><path
     d="m 122.27043,-157.02242 -0.79101,-3.24096 c -0.57718,-2.25584 -1.15359,-4.70359 -1.72925,-7.34326 -0.57571,-2.63962 -1.15139,-5.13571 -1.72705,-7.48828 l -0.28784,0 c -0.52883,2.40091 -1.06899,4.90909 -1.62049,7.52453 -0.55153,2.61551 -1.11586,5.05117 -1.69299,7.30701 l -0.79102,3.24096 z m 2.23242,9.57569 -13.10449,0 -2.30493,9.93603 -12.671631,0 14.255861,-46.79956 14.97656,0 14.25586,46.79956 -13.10449,0 z"
     id="path3090"
     style="font-size:72px;font-style:normal;font-variant:normal;font-weight:900;font-stretch:normal;text-align:center;line-height:72.00000286%;writing-mode:lr-tb;text-anchor:middle;fill:#231f20;fill-opacity:1;fill-rule:nonzero;stroke:none;font-family:Source Sans Pro Black;-inkscape-font-specification:'Source Sans Pro Black, Heavy'" /><path
     d="m 144.37273,-184.31026 12.81665,0 7.34326,19.43921 2.59277,7.6333 0.28784,0 2.59278,-7.6333 7.05542,-19.43921 12.81665,0 0,46.79956 -11.52027,0 0,-13.82299 c -4e-5,-1.20116 0.06,-2.52172 0.18018,-3.96167 0.12008,-1.43993 0.25191,-2.91576 0.39551,-4.42749 0.14351,-1.5117 0.31124,-2.98753 0.50317,-4.42749 0.19186,-1.43992 0.36031,-2.7363 0.50537,-3.88917 l -0.28784,0 -3.88916,10.94459 -6.47974,15.76757 -4.60766,0 -6.47974,-15.76757 -3.74414,-10.94459 -0.28784,0 c 0.14354,1.15287 0.31126,2.44925 0.50317,3.88917 0.19188,1.43996 0.35997,2.91579 0.50428,4.42749 0.14427,1.51173 0.27647,2.98756 0.3966,4.42749 0.1201,1.43995 0.18016,2.76051 0.18018,3.96167 l 0,13.82299 -11.37744,0 z"
     id="path3092"
     style="font-size:72px;font-style:normal;font-variant:normal;font-weight:900;font-stretch:normal;text-align:center;line-height:72.00000286%;writing-mode:lr-tb;text-anchor:middle;fill:#231f20;fill-opacity:1;fill-rule:nonzero;stroke:none;font-family:Source Sans Pro Black;-inkscape-font-specification:'Source Sans Pro Black, Heavy'" /><path
     d="m 200.20085,-184.31026 18.14502,0 c 2.49607,5e-5 4.88413,0.252 7.16419,0.75586 2.27999,0.50395 4.27181,1.36784 5.97546,2.59168 1.70357,1.22392 3.05965,2.83195 4.06824,4.82409 1.0085,1.99223 1.51277,4.45243 1.51281,7.38062 -4e-5,2.87991 -0.51639,5.35183 -1.54907,7.41577 -1.03275,2.06399 -2.413,3.75588 -4.14075,5.07568 -1.72781,1.31985 -3.71963,2.30385 -5.97546,2.95203 -2.25589,0.64821 -4.60769,0.97231 -7.05542,0.97229 l -5.76123,0 0,14.83154 -12.38379,0 z m 17.56934,22.17481 c 2.44773,2e-5 4.25937,-0.57603 5.43493,-1.72815 1.17551,-1.15207 1.76328,-2.78354 1.76331,-4.89441 -3e-5,-2.11227 -0.62369,-3.60055 -1.87097,-4.46484 -1.24734,-0.86423 -3.0231,-1.29635 -5.32727,-1.29639 l -5.18555,0 0,12.38379 z"
     id="path3094"
     style="font-size:72px;font-style:normal;font-variant:normal;font-weight:900;font-stretch:normal;text-align:center;line-height:72.00000286%;writing-mode:lr-tb;text-anchor:middle;fill:#231f20;fill-opacity:1;fill-rule:nonzero;stroke:none;font-family:Source Sans Pro Black;-inkscape-font-specification:'Source Sans Pro Black, Heavy'" /><path
     d="m 244.63835,-184.31026 12.38379,0 0,36.43067 17.71216,0 0,10.36889 -30.09595,0 z"
     id="path3096"
     style="font-size:72px;font-style:normal;font-variant:normal;font-weight:900;font-stretch:normal;text-align:center;line-height:72.00000286%;writing-mode:lr-tb;text-anchor:middle;fill:#231f20;fill-opacity:1;fill-rule:nonzero;stroke:none;font-family:Source Sans Pro Black;-inkscape-font-specification:'Source Sans Pro Black, Heavy'" /><path
     d="m 282.74773,-184.31026 30.24096,0 0,10.3667 -17.85717,0 0,7.34546 15.2644,0 0,10.3667 -15.2644,0 0,8.35181 18.57788,0 0,10.36889 -30.96167,0 z"
     id="path3098"
     style="font-size:72px;font-style:normal;font-variant:normal;font-weight:900;font-stretch:normal;text-align:center;line-height:72.00000286%;writing-mode:lr-tb;text-anchor:middle;fill:#231f20;fill-opacity:1;fill-rule:nonzero;stroke:none;font-family:Source Sans Pro Black;-inkscape-font-specification:'Source Sans Pro Black, Heavy'" /><path
     d="m 335.20964,-162.99898 4.46484,0 c 4.99216,3e-5 7.48826,-2.06393 7.48829,-6.19189 -3e-5,-2.01559 -0.63614,-3.40756 -1.90833,-4.17591 -1.27224,-0.76827 -3.13223,-1.15242 -5.57996,-1.15246 l -4.46484,0 z m 12.81665,25.48828 -8.06396,-15.69506 -4.75269,0 0,15.69506 -12.38379,0 0,-46.79956 17.71216,0 c 2.49607,5e-5 4.88413,0.23992 7.16418,0.71961 2.28,0.47978 4.27219,1.2957 5.97657,2.44775 1.7043,1.15214 3.06038,2.70012 4.06823,4.64392 1.00778,1.94389 1.51168,4.37992 1.51172,7.30811 -4e-5,3.36038 -0.68412,6.14431 -2.05224,8.3518 -1.36821,2.20755 -3.20439,3.93533 -5.50855,5.18335 l 10.15357,18.14502 z"
     id="path3100"
     style="font-size:72px;font-style:normal;font-variant:normal;font-weight:900;font-stretch:normal;text-align:center;line-height:72.00000286%;writing-mode:lr-tb;text-anchor:middle;fill:#231f20;fill-opacity:1;fill-rule:nonzero;stroke:none;font-family:Source Sans Pro Black;-inkscape-font-specification:'Source Sans Pro Black, Heavy'" /></g>


<g
   transform="scale(1,-1)"
   id="text36"><path
     d="m 135.46925,-65.130116 1.67969,0 0,13.120118 -1.67969,0 z"
     id="path3033"
     style="font-size:20px;font-variant:normal;font-weight:normal;text-align:center;writing-mode:lr-tb;text-anchor:middle;fill:#000000;fill-opacity:1;fill-rule:nonzero;stroke:none;font-family:Source Sans Pro;-inkscape-font-specification:SourceSansPro-Regular" /><path
     d="m 140.6255,-65.130116 1.71997,0 4.76014,8.240357 1.41967,2.719726 0.08,0 c -0.0399,-0.666501 -0.0865,-1.356502 -0.13977,-2.070007 -0.0533,-0.713496 -0.08,-1.416722 -0.08,-2.10968 l 0,-6.780396 1.57959,0 0,13.120118 -1.71997,0 -4.73999,-8.259888 -1.41968,-2.700195 -0.08,0 c 0.0399,0.666921 0.0831,1.343698 0.1297,2.030334 0.0466,0.686654 0.0699,1.376656 0.0699,2.070007 l 0,6.859742 -1.57959,0 z"
     id="path3035"
     style="font-size:20px;font-variant:normal;font-weight:normal;text-align:center;writing-mode:lr-tb;text-anchor:middle;fill:#000000;fill-opacity:1;fill-rule:nonzero;stroke:none;font-family:Source Sans Pro;-inkscape-font-specification:SourceSansPro-Regular" /><path
     d="m 153.47707,-65.130116 7.57995,0 0,1.400147 -5.90027,0 0,4.439697 5,0 0,1.400147 -5,0 0,5.880127 -1.67968,0 z"
     id="path3037"
     style="font-size:20px;font-variant:normal;font-weight:normal;text-align:center;writing-mode:lr-tb;text-anchor:middle;fill:#000000;fill-opacity:1;fill-rule:nonzero;stroke:none;font-family:Source Sans Pro;-inkscape-font-specification:SourceSansPro-Regular" /><path
     d="m 168.10231,-51.77013 c -0.82642,0 -1.58295,-0.160014 -2.26959,-0.480042 -0.68665,-0.320027 -1.28001,-0.776671 -1.78009,-1.369934 -0.50009,-0.593259 -0.88674,-1.31327 -1.15998,-2.160034 -0.27323,-0.846756 -0.40985,-1.796666 -0.40985,-2.849731 0,-1.053459 0.13662,-1.996859 0.40985,-2.830201 0.27324,-0.833323 0.65989,-1.540007 1.15998,-2.120056 0.50008,-0.580025 1.09344,-1.023343 1.78009,-1.329956 0.68664,-0.306586 1.44317,-0.459886 2.26959,-0.4599 0.81339,1.4e-5 1.56341,0.15667 2.25006,0.469971 0.68664,0.313326 1.28,0.760002 1.78009,1.340027 0.50007,0.580048 0.88673,1.286733 1.15997,2.120056 0.27323,0.833342 0.40984,1.770027 0.40986,2.810059 -2e-5,1.053065 -0.13663,2.002975 -0.40986,2.849731 -0.27324,0.846764 -0.6599,1.566775 -1.15997,2.160034 -0.50009,0.593263 -1.09345,1.049907 -1.78009,1.369934 -0.68665,0.320028 -1.43667,0.480042 -2.25006,0.480042 z m 0,-1.459961 c 0.58674,1e-6 1.11683,-0.126647 1.59027,-0.379944 0.47342,-0.253294 0.88012,-0.616656 1.22009,-1.090088 0.33996,-0.473426 0.60322,-1.040137 0.7898,-1.700134 0.18655,-0.659989 0.27983,-1.403193 0.27985,-2.229614 -2e-5,-0.813388 -0.0933,-1.546725 -0.27985,-2.200013 -0.18658,-0.65327 -0.44984,-1.206655 -0.7898,-1.660156 -0.33997,-0.45348 -0.74667,-0.803516 -1.22009,-1.05011 -0.47344,-0.24657 -1.00353,-0.369861 -1.59027,-0.369873 -0.58635,1.2e-5 -1.11959,0.123303 -1.59973,0.369873 -0.48015,0.246594 -0.8902,0.59663 -1.23016,1.05011 -0.33997,0.453501 -0.60324,1.006886 -0.7898,1.660156 -0.18657,0.653288 -0.27985,1.386625 -0.27985,2.200013 0,0.826421 0.0933,1.569625 0.27985,2.229614 0.18656,0.659997 0.44983,1.226708 0.7898,1.700134 0.33996,0.473432 0.75001,0.836794 1.23016,1.090088 0.48014,0.253297 1.01338,0.379945 1.59973,0.379944 z"
     id="path3039"
     style="font-size:20px;font-variant:normal;font-weight:normal;text-align:center;writing-mode:lr-tb;text-anchor:middle;fill:#000000;fill-opacity:1;fill-rule:nonzero;stroke:none;font-family:Source Sans Pro;-inkscape-font-specification:SourceSansPro-Regular" /><path
     d="m 175.64687,-58.570057 c -1e-5,-1.053459 0.14994,-2.000113 0.44982,-2.839966 0.29989,-0.839833 0.71981,-1.55313 1.25977,-2.139892 0.53996,-0.586739 1.18001,-1.036772 1.92017,-1.350098 0.74014,-0.313301 1.55008,-0.469957 2.42981,-0.469971 0.89354,1.4e-5 1.64692,0.169996 2.26013,0.509949 0.61319,0.339978 1.11327,0.709953 1.50024,1.109924 l -0.96008,1.060181 c -0.33326,-0.346669 -0.71656,-0.636687 -1.1499,-0.870056 -0.43336,-0.233346 -0.97678,-0.350025 -1.63025,-0.350037 -0.66651,1.2e-5 -1.26649,0.123303 -1.79993,0.369873 -0.53345,0.246594 -0.9902,0.599885 -1.37024,1.059876 -0.38005,0.460011 -0.67332,1.016753 -0.87982,1.670227 -0.20651,0.653491 -0.30976,1.386929 -0.30975,2.200317 -1e-5,0.826422 0.0966,1.569626 0.28991,2.229614 0.19328,0.659998 0.47323,1.223352 0.83985,1.690064 0.36661,0.466718 0.8199,0.826723 1.35986,1.080017 0.53995,0.253297 1.16332,0.379945 1.87012,0.379944 0.46671,1e-6 0.91338,-0.06999 1.34002,-0.209961 0.42663,-0.139972 0.77321,-0.329995 1.03974,-0.570068 l 0,-3.4198 -2.77954,0 0,-1.380005 4.29992,0 0,5.520019 c -0.42685,0.426434 -0.99356,0.786337 -1.70013,1.079712 -0.70659,0.293376 -1.49995,0.440064 -2.38007,0.440064 -0.8667,0 -1.66006,-0.1533 -2.38006,-0.4599 -0.72002,-0.306599 -1.34003,-0.749918 -1.86005,-1.329956 -0.52002,-0.580035 -0.92662,-1.293332 -1.21979,-2.139893 -0.29317,-0.846553 -0.43976,-1.803278 -0.43975,-2.870178 z"
     id="path3041"
     style="font-size:20px;font-variant:normal;font-weight:normal;text-align:center;writing-mode:lr-tb;text-anchor:middle;fill:#000000;fill-opacity:1;fill-rule:nonzero;stroke:none;font-family:Source Sans Pro;-inkscape-font-specification:SourceSansPro-Regular" /><path
     d="m 190.313,-58.910023 2.20032,0 c 1.02661,7e-6 1.80989,-0.209954 2.34985,-0.629883 0.53995,-0.419913 0.80993,-1.05651 0.80994,-1.90979 -1e-5,-0.866688 -0.26999,-1.473377 -0.80994,-1.820068 -0.53996,-0.346668 -1.32324,-0.520008 -2.34985,-0.520019 l -2.20032,0 z m 5.52002,6.900025 -3.15979,-5.540161 -2.36023,0 0,5.540161 -1.67968,0 0,-13.120118 4.11987,0 c 0.6665,1.4e-5 1.2798,0.06339 1.8399,0.190125 0.56009,0.126762 1.04349,0.336825 1.4502,0.630188 0.40669,0.293388 0.72336,0.673331 0.95001,1.139832 0.22663,0.466522 0.33996,1.039947 0.33997,1.720275 -1e-5,1.02662 -0.26674,1.846525 -0.80017,2.459717 -0.53346,0.613206 -1.24676,1.033128 -2.1399,1.259766 l 3.33985,5.720215 z"
     id="path3043"
     style="font-size:20px;font-variant:normal;font-weight:normal;text-align:center;writing-mode:lr-tb;text-anchor:middle;fill:#000000;fill-opacity:1;fill-rule:nonzero;stroke:none;font-family:Source Sans Pro;-inkscape-font-specification:SourceSansPro-Regular" /><path
     d="m 200.15675,-65.130116 1.67969,0 0,13.120118 -1.67969,0 z"
     id="path3045"
     style="font-size:20px;font-variant:normal;font-weight:normal;text-align:center;writing-mode:lr-tb;text-anchor:middle;fill:#000000;fill-opacity:1;fill-rule:nonzero;stroke:none;font-family:Source Sans Pro;-inkscape-font-specification:SourceSansPro-Regular" /><path
     d="m 205.27272,-65.130116 3.28003,0 c 2.02677,1.4e-5 3.56678,0.560011 4.62006,1.679993 1.05325,1.120006 1.57988,2.726754 1.57989,4.820252 -1e-5,1.040044 -0.13327,1.970016 -0.39978,2.789917 -0.26653,0.819908 -0.6598,1.513165 -1.17981,2.079773 -0.52003,0.56661 -1.16008,0.99996 -1.92017,1.300048 -0.76009,0.30009 -1.63351,0.450135 -2.62023,0.450135 l -3.35999,0 z m 3.1604,11.760254 c 1.5332,2e-6 2.6831,-0.459999 3.44971,-1.380004 0.76659,-0.92 1.14989,-2.213334 1.1499,-3.880005 -10e-6,-1.666659 -0.38331,-2.940054 -1.1499,-3.820191 -0.76661,-0.880115 -1.91651,-1.320178 -3.44971,-1.32019 l -1.50024,0 0,10.40039 z"
     id="path3047"
     style="font-size:20px;font-variant:normal;font-weight:normal;text-align:center;writing-mode:lr-tb;text-anchor:middle;fill:#000000;fill-opacity:1;fill-rule:nonzero;stroke:none;font-family:Source Sans Pro;-inkscape-font-specification:SourceSansPro-Regular" /><path
     d="m 221.52394,-65.130116 4.03992,0 c 0.7198,1.4e-5 1.37979,0.06674 1.97998,0.200196 0.60017,0.133476 1.11022,0.350151 1.53015,0.650024 0.41991,0.299898 0.74655,0.696525 0.97992,1.189881 0.23335,0.493378 0.35003,1.099965 0.35004,1.819763 -1e-5,0.693368 -0.11669,1.293444 -0.35004,1.800232 -0.23337,0.506802 -0.56336,0.926825 -0.98999,1.260071 -0.42665,0.333257 -0.9367,0.583196 -1.53015,0.749816 -0.59347,0.166632 -1.25011,0.249945 -1.96991,0.249939 l -2.36023,0 0,5.200196 -1.67969,0 z m 3.82019,6.560059 c 1.15966,7e-6 2.01619,-0.216668 2.56958,-0.650024 0.55338,-0.433342 0.83007,-1.116732 0.83008,-2.050171 -1e-5,-0.946442 -0.28331,-1.602976 -0.84991,-1.969605 -0.56662,-0.366606 -1.41654,-0.549915 -2.54975,-0.549926 l -2.1405,0 0,5.219726 z"
     id="path3049"
     style="font-size:20px;font-variant:normal;font-weight:normal;text-align:center;writing-mode:lr-tb;text-anchor:middle;fill:#000000;fill-opacity:1;fill-rule:nonzero;stroke:none;font-family:Source Sans Pro;-inkscape-font-specification:SourceSansPro-Regular" /><path
     d="m 238.51003,-57.349964 -0.62012,-2.000122 c -0.22665,-0.733228 -0.44658,-1.463208 -0.65979,-2.189942 -0.21322,-0.726715 -0.42664,-1.470122 -0.64026,-2.230224 l -0.08,0 c -0.21322,0.760102 -0.42654,1.503509 -0.63995,2.230224 -0.21342,0.726734 -0.43346,1.456714 -0.6601,2.189942 l -0.63964,2.000122 z m 0.41992,1.339722 -4.77967,0 -1.26037,4.000244 -1.69983,0 4.4397,-13.120118 1.88049,0 4.4397,13.120118 -1.75965,0 z"
     id="path3051"
     style="font-size:20px;font-variant:normal;font-weight:normal;text-align:center;writing-mode:lr-tb;text-anchor:middle;fill:#000000;fill-opacity:1;fill-rule:nonzero;stroke:none;font-family:Source Sans Pro;-inkscape-font-specification:SourceSansPro-Regular" /><path
     d="m 242.91249,-58.570057 c 0,-1.053459 0.14659,-2.000113 0.43976,-2.839966 0.29317,-0.839833 0.70312,-1.55313 1.22986,-2.139892 0.52673,-0.586739 1.14674,-1.036772 1.86004,-1.350098 0.7133,-0.313301 1.49007,-0.469957 2.33033,-0.469971 0.78653,1.4e-5 1.48314,0.163384 2.08984,0.490113 0.60668,0.326754 1.1033,0.70334 1.48987,1.12976 l -0.93994,1.060181 c -0.34669,-0.373524 -0.73335,-0.670256 -1.15998,-0.890198 -0.42664,-0.219918 -0.91339,-0.329883 -1.46026,-0.329895 -0.62664,1.2e-5 -1.1966,0.123303 -1.7099,0.369873 -0.51331,0.246594 -0.94992,0.599885 -1.30982,1.059876 -0.3599,0.460011 -0.63985,1.016753 -0.83984,1.670227 -0.2,0.653491 -0.29999,1.386929 -0.29999,2.200317 0,0.826422 0.0966,1.569626 0.28992,2.229614 0.19327,0.659998 0.46661,1.223352 0.82001,1.690064 0.35339,0.466718 0.78002,0.826723 1.2799,1.080017 0.49988,0.253297 1.06313,0.379945 1.68976,0.379944 0.62662,1e-6 1.17665,-0.126647 1.65009,-0.379944 0.47342,-0.253294 0.92355,-0.613299 1.3504,-1.080017 l 0.93994,1.019897 c -0.50701,0.600181 -1.08715,1.066896 -1.74042,1.400147 -0.65328,0.333252 -1.39985,0.499878 -2.23968,0.499878 -0.82683,0 -1.59018,-0.1533 -2.29004,-0.4599 -0.69987,-0.306599 -1.30656,-0.749918 -1.82007,-1.329956 -0.51351,-0.580035 -0.91685,-1.293332 -1.21002,-2.139893 -0.29317,-0.846553 -0.43976,-1.803278 -0.43976,-2.870178 z"
     id="path3053"
     style="font-size:20px;font-variant:normal;font-weight:normal;text-align:center;writing-mode:lr-tb;text-anchor:middle;fill:#000000;fill-opacity:1;fill-rule:nonzero;stroke:none;font-family:Source Sans Pro;-inkscape-font-specification:SourceSansPro-Regular" /><path
     d="m 255.0005,-65.130116 1.67969,0 0,13.120118 -1.67969,0 z"
     id="path3055"
     style="font-size:20px;font-variant:normal;font-weight:normal;text-align:center;writing-mode:lr-tb;text-anchor:middle;fill:#000000;fill-opacity:1;fill-rule:nonzero;stroke:none;font-family:Source Sans Pro;-inkscape-font-specification:SourceSansPro-Regular" /><path
     d="m 260.15675,-65.130116 7.57996,0 0,1.400147 -5.90027,0 0,4.439697 5,0 0,1.400147 -5,0 0,5.880127 -1.67969,0 z"
     id="path3057"
     style="font-size:20px;font-variant:normal;font-weight:normal;text-align:center;writing-mode:lr-tb;text-anchor:middle;fill:#000000;fill-opacity:1;fill-rule:nonzero;stroke:none;font-family:Source Sans Pro;-inkscape-font-specification:SourceSansPro-Regular" /><path
     d="m 269.92238,-65.130116 1.67969,0 0,13.120118 -1.67969,0 z"
     id="path3059"
     style="font-size:20px;font-variant:normal;font-weight:normal;text-align:center;writing-mode:lr-tb;text-anchor:middle;fill:#000000;fill-opacity:1;fill-rule:nonzero;stroke:none;font-family:Source Sans Pro;-inkscape-font-specification:SourceSansPro-Regular" /><path
     d="m 274.31874,-58.570057 c 0,-1.053459 0.14659,-2.000113 0.43976,-2.839966 0.29317,-0.839833 0.70312,-1.55313 1.22986,-2.139892 0.52673,-0.586739 1.14674,-1.036772 1.86004,-1.350098 0.7133,-0.313301 1.49007,-0.469957 2.33033,-0.469971 0.78653,1.4e-5 1.48314,0.163384 2.08984,0.490113 0.60668,0.326754 1.1033,0.70334 1.48987,1.12976 l -0.93994,1.060181 c -0.34669,-0.373524 -0.73335,-0.670256 -1.15998,-0.890198 -0.42664,-0.219918 -0.91339,-0.329883 -1.46026,-0.329895 -0.62664,1.2e-5 -1.1966,0.123303 -1.7099,0.369873 -0.51331,0.246594 -0.94992,0.599885 -1.30982,1.059876 -0.3599,0.460011 -0.63985,1.016753 -0.83984,1.670227 -0.2,0.653491 -0.29999,1.386929 -0.29999,2.200317 0,0.826422 0.0966,1.569626 0.28992,2.229614 0.19327,0.659998 0.46661,1.223352 0.82001,1.690064 0.35339,0.466718 0.78002,0.826723 1.2799,1.080017 0.49988,0.253297 1.06313,0.379945 1.68976,0.379944 0.62662,1e-6 1.17665,-0.126647 1.65009,-0.379944 0.47342,-0.253294 0.92355,-0.613299 1.3504,-1.080017 l 0.93994,1.019897 c -0.50701,0.600181 -1.08715,1.066896 -1.74042,1.400147 -0.65328,0.333252 -1.39985,0.499878 -2.23968,0.499878 -0.82683,0 -1.59018,-0.1533 -2.29004,-0.4599 -0.69987,-0.306599 -1.30656,-0.749918 -1.82007,-1.329956 -0.51351,-0.580035 -0.91685,-1.293332 -1.21002,-2.139893 -0.29317,-0.846553 -0.43976,-1.803278 -0.43976,-2.870178 z"
     id="path3061"
     style="font-size:20px;font-variant:normal;font-weight:normal;text-align:center;writing-mode:lr-tb;text-anchor:middle;fill:#000000;fill-opacity:1;fill-rule:nonzero;stroke:none;font-family:Source Sans Pro;-inkscape-font-specification:SourceSansPro-Regular" /></g>

<text
   transform="matrix(1,0,0,-1,222.1311,52.01)"
   id="text40"><tspan
     x="0"
     y="0"
     id="tspan42"
     style="font-size:20px;font-variant:normal;font-weight:normal;writing-mode:lr-tb;fill:#231f20;fill-opacity:1;fill-rule:nonzero;stroke:none;font-family:Source Sans Pro;-inkscape-font-specification:SourceSansPro-Regular" /></text>


</g></svg>